<svg id="Capa_3" data-name="Capa 3" xmlns="http://www.w3.org/2000/svg" viewBox="0 0 253.33 220.17"><title>shape-14</title><path d="M305.47,112.22a2.09,2.09,0,1,1-2.08-2.08A2.08,2.08,0,0,1,305.47,112.22Z" transform="translate(-301.25 -110.14)"/><path d="M330.39,112.22a2.09,2.09,0,1,1-2.09-2.08A2.08,2.08,0,0,1,330.39,112.22Z" transform="translate(-301.25 -110.14)"/><path d="M355.3,112.22a2.08,2.08,0,1,1-2.08-2.08A2.08,2.08,0,0,1,355.3,112.22Z" transform="translate(-301.25 -110.14)"/><path d="M380.22,112.22a2.09,2.09,0,1,1-2.08-2.08A2.08,2.08,0,0,1,380.22,112.22Z" transform="translate(-301.25 -110.14)"/><path d="M405.14,112.22a2.09,2.09,0,1,1-2.09-2.08A2.08,2.08,0,0,1,405.14,112.22Z" transform="translate(-301.25 -110.14)"/><path d="M430.05,112.22a2.08,2.08,0,1,1-2.08-2.08A2.08,2.08,0,0,1,430.05,112.22Z" transform="translate(-301.25 -110.14)"/><path d="M455,112.22a2.09,2.09,0,1,1-2.08-2.08A2.08,2.08,0,0,1,455,112.22Z" transform="translate(-301.25 -110.14)"/><path d="M305.47,130.22a2.09,2.09,0,1,1-2.08-2.08A2.08,2.08,0,0,1,305.47,130.22Z" transform="translate(-301.25 -110.14)"/><path d="M330.39,130.22a2.09,2.09,0,1,1-2.09-2.08A2.08,2.08,0,0,1,330.39,130.22Z" transform="translate(-301.25 -110.14)"/><path d="M355.3,130.22a2.08,2.08,0,1,1-2.08-2.08A2.08,2.08,0,0,1,355.3,130.22Z" transform="translate(-301.25 -110.14)"/><path d="M380.22,130.22a2.09,2.09,0,1,1-2.08-2.08A2.08,2.08,0,0,1,380.22,130.22Z" transform="translate(-301.25 -110.14)"/><path d="M405.14,130.22a2.09,2.09,0,1,1-2.09-2.08A2.08,2.08,0,0,1,405.14,130.22Z" transform="translate(-301.25 -110.14)"/><path d="M430.05,130.22a2.08,2.08,0,1,1-2.08-2.08A2.08,2.08,0,0,1,430.05,130.22Z" transform="translate(-301.25 -110.14)"/><path d="M455,130.22a2.09,2.09,0,1,1-2.08-2.08A2.08,2.08,0,0,1,455,130.22Z" transform="translate(-301.25 -110.14)"/><path d="M305.47,148.22a2.09,2.09,0,1,1-2.08-2.08A2.08,2.08,0,0,1,305.47,148.22Z" transform="translate(-301.25 -110.14)"/><path d="M330.39,148.22a2.09,2.09,0,1,1-2.09-2.08A2.08,2.08,0,0,1,330.39,148.22Z" transform="translate(-301.25 -110.14)"/><path d="M355.3,148.22a2.08,2.08,0,1,1-2.08-2.08A2.08,2.08,0,0,1,355.3,148.22Z" transform="translate(-301.25 -110.14)"/><path d="M380.22,148.22a2.09,2.09,0,1,1-2.08-2.08A2.08,2.08,0,0,1,380.22,148.22Z" transform="translate(-301.25 -110.14)"/><path d="M405.14,148.22a2.09,2.09,0,1,1-2.09-2.08A2.08,2.08,0,0,1,405.14,148.22Z" transform="translate(-301.25 -110.14)"/><path d="M430.05,148.22a2.08,2.08,0,1,1-2.08-2.08A2.08,2.08,0,0,1,430.05,148.22Z" transform="translate(-301.25 -110.14)"/><path d="M455,148.22a2.09,2.09,0,1,1-2.08-2.08A2.08,2.08,0,0,1,455,148.22Z" transform="translate(-301.25 -110.14)"/><path d="M305.47,148.22a2.09,2.09,0,1,1-2.08-2.08A2.08,2.08,0,0,1,305.47,148.22Z" transform="translate(-301.25 -110.14)"/><path d="M330.39,148.22a2.09,2.09,0,1,1-2.09-2.08A2.08,2.08,0,0,1,330.39,148.22Z" transform="translate(-301.25 -110.14)"/><path d="M355.3,148.22a2.08,2.08,0,1,1-2.08-2.08A2.08,2.08,0,0,1,355.3,148.22Z" transform="translate(-301.25 -110.14)"/><path d="M380.22,148.22a2.09,2.09,0,1,1-2.08-2.08A2.08,2.08,0,0,1,380.22,148.22Z" transform="translate(-301.25 -110.14)"/><path d="M405.14,148.22a2.09,2.09,0,1,1-2.09-2.08A2.08,2.08,0,0,1,405.14,148.22Z" transform="translate(-301.25 -110.14)"/><path d="M430.05,148.22a2.08,2.08,0,1,1-2.08-2.08A2.08,2.08,0,0,1,430.05,148.22Z" transform="translate(-301.25 -110.14)"/><path d="M455,148.22a2.09,2.09,0,1,1-2.08-2.08A2.08,2.08,0,0,1,455,148.22Z" transform="translate(-301.25 -110.14)"/><path d="M305.47,166.22a2.09,2.09,0,1,1-2.08-2.08A2.08,2.08,0,0,1,305.47,166.22Z" transform="translate(-301.25 -110.14)"/><path d="M330.39,166.22a2.09,2.09,0,1,1-2.09-2.08A2.08,2.08,0,0,1,330.39,166.22Z" transform="translate(-301.25 -110.14)"/><path d="M355.3,166.22a2.08,2.08,0,1,1-2.08-2.08A2.08,2.08,0,0,1,355.3,166.22Z" transform="translate(-301.25 -110.14)"/><path d="M380.22,166.22a2.09,2.09,0,1,1-2.08-2.08A2.08,2.08,0,0,1,380.22,166.22Z" transform="translate(-301.25 -110.14)"/><path d="M405.14,166.22a2.09,2.09,0,1,1-2.09-2.08A2.08,2.08,0,0,1,405.14,166.22Z" transform="translate(-301.25 -110.14)"/><path d="M430.05,166.22a2.08,2.08,0,1,1-2.08-2.08A2.08,2.08,0,0,1,430.05,166.22Z" transform="translate(-301.25 -110.14)"/><path d="M455,166.22a2.09,2.09,0,1,1-2.08-2.08A2.08,2.08,0,0,1,455,166.22Z" transform="translate(-301.25 -110.14)"/><path d="M305.47,184.22a2.09,2.09,0,1,1-2.08-2.08A2.08,2.08,0,0,1,305.47,184.22Z" transform="translate(-301.25 -110.14)"/><path d="M330.39,184.22a2.09,2.09,0,1,1-2.09-2.08A2.08,2.08,0,0,1,330.39,184.22Z" transform="translate(-301.25 -110.14)"/><path d="M355.3,184.22a2.08,2.08,0,1,1-2.08-2.08A2.08,2.08,0,0,1,355.3,184.22Z" transform="translate(-301.25 -110.14)"/><path d="M380.22,184.22a2.09,2.09,0,1,1-2.08-2.08A2.08,2.08,0,0,1,380.22,184.22Z" transform="translate(-301.25 -110.14)"/><path d="M405.14,184.22a2.09,2.09,0,1,1-2.09-2.08A2.08,2.08,0,0,1,405.14,184.22Z" transform="translate(-301.25 -110.14)"/><path d="M430.05,184.22a2.08,2.08,0,1,1-2.08-2.08A2.08,2.08,0,0,1,430.05,184.22Z" transform="translate(-301.25 -110.14)"/><path d="M455,184.22a2.09,2.09,0,1,1-2.08-2.08A2.08,2.08,0,0,1,455,184.22Z" transform="translate(-301.25 -110.14)"/><path d="M305.47,184.22a2.09,2.09,0,1,1-2.08-2.08A2.08,2.08,0,0,1,305.47,184.22Z" transform="translate(-301.25 -110.14)"/><path d="M330.39,184.22a2.09,2.09,0,1,1-2.09-2.08A2.08,2.08,0,0,1,330.39,184.22Z" transform="translate(-301.25 -110.14)"/><path d="M355.3,184.22a2.08,2.08,0,1,1-2.08-2.08A2.08,2.08,0,0,1,355.3,184.22Z" transform="translate(-301.25 -110.14)"/><path d="M380.22,184.22a2.09,2.09,0,1,1-2.08-2.08A2.08,2.08,0,0,1,380.22,184.22Z" transform="translate(-301.25 -110.14)"/><path d="M405.14,184.22a2.09,2.09,0,1,1-2.09-2.08A2.08,2.08,0,0,1,405.14,184.22Z" transform="translate(-301.25 -110.14)"/><path d="M430.05,184.22a2.08,2.08,0,1,1-2.08-2.08A2.08,2.08,0,0,1,430.05,184.22Z" transform="translate(-301.25 -110.14)"/><path d="M455,184.22a2.09,2.09,0,1,1-2.08-2.08A2.08,2.08,0,0,1,455,184.22Z" transform="translate(-301.25 -110.14)"/><path d="M305.47,202.22a2.09,2.09,0,1,1-2.08-2.08A2.08,2.08,0,0,1,305.47,202.22Z" transform="translate(-301.25 -110.14)"/><path d="M330.39,202.22a2.09,2.09,0,1,1-2.09-2.08A2.08,2.08,0,0,1,330.39,202.22Z" transform="translate(-301.25 -110.14)"/><path d="M355.3,202.22a2.08,2.08,0,1,1-2.08-2.08A2.08,2.08,0,0,1,355.3,202.22Z" transform="translate(-301.25 -110.14)"/><path d="M380.22,202.22a2.09,2.09,0,1,1-2.08-2.08A2.08,2.08,0,0,1,380.22,202.22Z" transform="translate(-301.25 -110.14)"/><path d="M405.14,202.22a2.09,2.09,0,1,1-2.09-2.08A2.08,2.08,0,0,1,405.14,202.22Z" transform="translate(-301.25 -110.14)"/><path d="M430.05,202.22a2.08,2.08,0,1,1-2.08-2.08A2.08,2.08,0,0,1,430.05,202.22Z" transform="translate(-301.25 -110.14)"/><path d="M455,202.22a2.09,2.09,0,1,1-2.08-2.08A2.08,2.08,0,0,1,455,202.22Z" transform="translate(-301.25 -110.14)"/><path d="M305.47,220.22a2.09,2.09,0,1,1-2.08-2.08A2.08,2.08,0,0,1,305.47,220.22Z" transform="translate(-301.25 -110.14)"/><path d="M330.39,220.22a2.09,2.09,0,1,1-2.09-2.08A2.08,2.08,0,0,1,330.39,220.22Z" transform="translate(-301.25 -110.14)"/><path d="M355.3,220.22a2.08,2.08,0,1,1-2.08-2.08A2.08,2.08,0,0,1,355.3,220.22Z" transform="translate(-301.25 -110.14)"/><path d="M380.22,220.22a2.09,2.09,0,1,1-2.08-2.08A2.08,2.08,0,0,1,380.22,220.22Z" transform="translate(-301.25 -110.14)"/><path d="M405.14,220.22a2.09,2.09,0,1,1-2.09-2.08A2.08,2.08,0,0,1,405.14,220.22Z" transform="translate(-301.25 -110.14)"/><path d="M430.05,220.22a2.08,2.08,0,1,1-2.08-2.08A2.08,2.08,0,0,1,430.05,220.22Z" transform="translate(-301.25 -110.14)"/><path d="M455,220.22a2.09,2.09,0,1,1-2.08-2.08A2.08,2.08,0,0,1,455,220.22Z" transform="translate(-301.25 -110.14)"/><path d="M305.42,220.22a2.09,2.09,0,1,1-2.09-2.08A2.09,2.09,0,0,1,305.42,220.22Z" transform="translate(-301.25 -110.14)"/><path d="M330.33,220.22a2.08,2.08,0,1,1-2.08-2.08A2.08,2.08,0,0,1,330.33,220.22Z" transform="translate(-301.25 -110.14)"/><path d="M355.25,220.22a2.09,2.09,0,1,1-2.08-2.08A2.08,2.08,0,0,1,355.25,220.22Z" transform="translate(-301.25 -110.14)"/><path d="M380.17,220.22a2.09,2.09,0,1,1-2.09-2.08A2.09,2.09,0,0,1,380.17,220.22Z" transform="translate(-301.25 -110.14)"/><path d="M405.08,220.22a2.08,2.08,0,1,1-2.08-2.08A2.08,2.08,0,0,1,405.08,220.22Z" transform="translate(-301.25 -110.14)"/><path d="M430,220.22a2.09,2.09,0,1,1-2.08-2.08A2.08,2.08,0,0,1,430,220.22Z" transform="translate(-301.25 -110.14)"/><path d="M454.92,220.22a2.09,2.09,0,1,1-2.09-2.08A2.09,2.09,0,0,1,454.92,220.22Z" transform="translate(-301.25 -110.14)"/><path d="M305.42,238.22a2.09,2.09,0,1,1-2.09-2.08A2.09,2.09,0,0,1,305.42,238.22Z" transform="translate(-301.25 -110.14)"/><path d="M330.33,238.22a2.08,2.08,0,1,1-2.08-2.08A2.08,2.08,0,0,1,330.33,238.22Z" transform="translate(-301.25 -110.14)"/><path d="M355.25,238.22a2.09,2.09,0,1,1-2.08-2.08A2.08,2.08,0,0,1,355.25,238.22Z" transform="translate(-301.25 -110.14)"/><path d="M380.17,238.22a2.09,2.09,0,1,1-2.09-2.08A2.09,2.09,0,0,1,380.17,238.22Z" transform="translate(-301.25 -110.14)"/><path d="M405.08,238.22a2.08,2.08,0,1,1-2.08-2.08A2.08,2.08,0,0,1,405.08,238.22Z" transform="translate(-301.25 -110.14)"/><path d="M430,238.22a2.09,2.09,0,1,1-2.08-2.08A2.08,2.08,0,0,1,430,238.22Z" transform="translate(-301.25 -110.14)"/><path d="M454.92,238.22a2.09,2.09,0,1,1-2.09-2.08A2.09,2.09,0,0,1,454.92,238.22Z" transform="translate(-301.25 -110.14)"/><path d="M305.42,256.22a2.09,2.09,0,1,1-2.09-2.08A2.09,2.09,0,0,1,305.42,256.22Z" transform="translate(-301.25 -110.14)"/><path d="M330.33,256.22a2.08,2.08,0,1,1-2.08-2.08A2.08,2.08,0,0,1,330.33,256.22Z" transform="translate(-301.25 -110.14)"/><path d="M355.25,256.22a2.09,2.09,0,1,1-2.08-2.08A2.08,2.08,0,0,1,355.25,256.22Z" transform="translate(-301.25 -110.14)"/><path d="M380.17,256.22a2.09,2.09,0,1,1-2.09-2.08A2.09,2.09,0,0,1,380.17,256.22Z" transform="translate(-301.25 -110.14)"/><path d="M405.08,256.22a2.08,2.08,0,1,1-2.08-2.08A2.08,2.08,0,0,1,405.08,256.22Z" transform="translate(-301.25 -110.14)"/><path d="M430,256.22a2.09,2.09,0,1,1-2.08-2.08A2.08,2.08,0,0,1,430,256.22Z" transform="translate(-301.25 -110.14)"/><path d="M454.92,256.22a2.09,2.09,0,1,1-2.09-2.08A2.09,2.09,0,0,1,454.92,256.22Z" transform="translate(-301.25 -110.14)"/><path d="M305.42,256.22a2.09,2.09,0,1,1-2.09-2.08A2.09,2.09,0,0,1,305.42,256.22Z" transform="translate(-301.25 -110.14)"/><path d="M330.33,256.22a2.08,2.08,0,1,1-2.08-2.08A2.08,2.08,0,0,1,330.33,256.22Z" transform="translate(-301.25 -110.14)"/><path d="M355.25,256.22a2.09,2.09,0,1,1-2.08-2.08A2.08,2.08,0,0,1,355.25,256.22Z" transform="translate(-301.25 -110.14)"/><path d="M380.17,256.22a2.09,2.09,0,1,1-2.09-2.08A2.09,2.09,0,0,1,380.17,256.22Z" transform="translate(-301.25 -110.14)"/><path d="M405.08,256.22a2.08,2.08,0,1,1-2.08-2.08A2.08,2.08,0,0,1,405.08,256.22Z" transform="translate(-301.25 -110.14)"/><path d="M430,256.22a2.09,2.09,0,1,1-2.08-2.08A2.08,2.08,0,0,1,430,256.22Z" transform="translate(-301.25 -110.14)"/><path d="M454.92,256.22a2.09,2.09,0,1,1-2.09-2.08A2.09,2.09,0,0,1,454.92,256.22Z" transform="translate(-301.25 -110.14)"/><path d="M305.42,274.22a2.09,2.09,0,1,1-2.09-2.08A2.09,2.09,0,0,1,305.42,274.22Z" transform="translate(-301.25 -110.14)"/><path d="M330.33,274.22a2.08,2.08,0,1,1-2.08-2.08A2.08,2.08,0,0,1,330.33,274.22Z" transform="translate(-301.25 -110.14)"/><path d="M355.25,274.22a2.09,2.09,0,1,1-2.08-2.08A2.08,2.08,0,0,1,355.25,274.22Z" transform="translate(-301.25 -110.14)"/><path d="M380.17,274.22a2.09,2.09,0,1,1-2.09-2.08A2.09,2.09,0,0,1,380.17,274.22Z" transform="translate(-301.25 -110.14)"/><path d="M405.08,274.22a2.08,2.08,0,1,1-2.08-2.08A2.08,2.08,0,0,1,405.08,274.22Z" transform="translate(-301.25 -110.14)"/><path d="M430,274.22a2.09,2.09,0,1,1-2.08-2.08A2.08,2.08,0,0,1,430,274.22Z" transform="translate(-301.25 -110.14)"/><path d="M454.92,274.22a2.09,2.09,0,1,1-2.09-2.08A2.09,2.09,0,0,1,454.92,274.22Z" transform="translate(-301.25 -110.14)"/><path d="M305.42,292.22a2.09,2.09,0,1,1-2.09-2.08A2.09,2.09,0,0,1,305.42,292.22Z" transform="translate(-301.25 -110.14)"/><path d="M330.33,292.22a2.08,2.08,0,1,1-2.08-2.08A2.08,2.08,0,0,1,330.33,292.22Z" transform="translate(-301.25 -110.14)"/><path d="M355.25,292.22a2.09,2.09,0,1,1-2.08-2.08A2.08,2.08,0,0,1,355.25,292.22Z" transform="translate(-301.25 -110.14)"/><path d="M380.17,292.22a2.09,2.09,0,1,1-2.09-2.08A2.09,2.09,0,0,1,380.17,292.22Z" transform="translate(-301.25 -110.14)"/><path d="M405.08,292.22a2.08,2.08,0,1,1-2.08-2.08A2.08,2.08,0,0,1,405.08,292.22Z" transform="translate(-301.25 -110.14)"/><path d="M430,292.22a2.09,2.09,0,1,1-2.08-2.08A2.08,2.08,0,0,1,430,292.22Z" transform="translate(-301.25 -110.14)"/><path d="M454.92,292.22a2.09,2.09,0,1,1-2.09-2.08A2.09,2.09,0,0,1,454.92,292.22Z" transform="translate(-301.25 -110.14)"/><path d="M305.42,292.22a2.09,2.09,0,1,1-2.09-2.08A2.09,2.09,0,0,1,305.42,292.22Z" transform="translate(-301.25 -110.14)"/><path d="M330.33,292.22a2.08,2.08,0,1,1-2.08-2.08A2.08,2.08,0,0,1,330.33,292.22Z" transform="translate(-301.25 -110.14)"/><path d="M355.25,292.22a2.09,2.09,0,1,1-2.08-2.08A2.08,2.08,0,0,1,355.25,292.22Z" transform="translate(-301.25 -110.14)"/><path d="M380.17,292.22a2.09,2.09,0,1,1-2.09-2.08A2.09,2.09,0,0,1,380.17,292.22Z" transform="translate(-301.25 -110.14)"/><path d="M405.08,292.22a2.08,2.08,0,1,1-2.08-2.08A2.08,2.08,0,0,1,405.08,292.22Z" transform="translate(-301.25 -110.14)"/><path d="M430,292.22a2.09,2.09,0,1,1-2.08-2.08A2.08,2.08,0,0,1,430,292.22Z" transform="translate(-301.25 -110.14)"/><path d="M454.92,292.22a2.09,2.09,0,1,1-2.09-2.08A2.09,2.09,0,0,1,454.92,292.22Z" transform="translate(-301.25 -110.14)"/><path d="M305.42,310.22a2.09,2.09,0,1,1-2.09-2.08A2.09,2.09,0,0,1,305.42,310.22Z" transform="translate(-301.25 -110.14)"/><path d="M330.33,310.22a2.08,2.08,0,1,1-2.08-2.08A2.08,2.08,0,0,1,330.33,310.22Z" transform="translate(-301.25 -110.14)"/><path d="M355.25,310.22a2.09,2.09,0,1,1-2.08-2.08A2.08,2.08,0,0,1,355.25,310.22Z" transform="translate(-301.25 -110.14)"/><path d="M380.17,310.22a2.09,2.09,0,1,1-2.09-2.08A2.09,2.09,0,0,1,380.17,310.22Z" transform="translate(-301.25 -110.14)"/><path d="M405.08,310.22a2.08,2.08,0,1,1-2.08-2.08A2.08,2.08,0,0,1,405.08,310.22Z" transform="translate(-301.25 -110.14)"/><path d="M430,310.22a2.09,2.09,0,1,1-2.08-2.08A2.08,2.08,0,0,1,430,310.22Z" transform="translate(-301.25 -110.14)"/><path d="M454.92,310.22a2.09,2.09,0,1,1-2.09-2.08A2.09,2.09,0,0,1,454.92,310.22Z" transform="translate(-301.25 -110.14)"/><path d="M305.42,328.22a2.09,2.09,0,1,1-2.09-2.08A2.09,2.09,0,0,1,305.42,328.22Z" transform="translate(-301.25 -110.14)"/><path d="M330.33,328.22a2.08,2.08,0,1,1-2.08-2.08A2.08,2.08,0,0,1,330.33,328.22Z" transform="translate(-301.25 -110.14)"/><path d="M355.25,328.22a2.09,2.09,0,1,1-2.08-2.08A2.08,2.08,0,0,1,355.25,328.22Z" transform="translate(-301.25 -110.14)"/><path d="M380.17,328.22a2.09,2.09,0,1,1-2.09-2.08A2.09,2.09,0,0,1,380.17,328.22Z" transform="translate(-301.25 -110.14)"/><path d="M405.08,328.22a2.08,2.08,0,1,1-2.08-2.08A2.08,2.08,0,0,1,405.08,328.22Z" transform="translate(-301.25 -110.14)"/><path d="M430,328.22a2.09,2.09,0,1,1-2.08-2.08A2.08,2.08,0,0,1,430,328.22Z" transform="translate(-301.25 -110.14)"/><path d="M454.92,328.22a2.09,2.09,0,1,1-2.09-2.08A2.09,2.09,0,0,1,454.92,328.22Z" transform="translate(-301.25 -110.14)"/><path d="M405.08,112.22a2.08,2.08,0,1,1-2.08-2.08A2.08,2.08,0,0,1,405.08,112.22Z" transform="translate(-301.25 -110.14)"/><path d="M430,112.22a2.09,2.09,0,1,1-2.08-2.08A2.08,2.08,0,0,1,430,112.22Z" transform="translate(-301.25 -110.14)"/><path d="M454.92,112.22a2.09,2.09,0,1,1-2.09-2.08A2.09,2.09,0,0,1,454.92,112.22Z" transform="translate(-301.25 -110.14)"/><path d="M479.83,112.22a2.08,2.08,0,1,1-2.08-2.08A2.08,2.08,0,0,1,479.83,112.22Z" transform="translate(-301.25 -110.14)"/><path d="M504.75,112.22a2.09,2.09,0,1,1-2.08-2.08A2.08,2.08,0,0,1,504.75,112.22Z" transform="translate(-301.25 -110.14)"/><path d="M529.67,112.22a2.09,2.09,0,1,1-2.09-2.08A2.09,2.09,0,0,1,529.67,112.22Z" transform="translate(-301.25 -110.14)"/><path d="M554.58,112.22a2.08,2.08,0,1,1-2.08-2.08A2.08,2.08,0,0,1,554.58,112.22Z" transform="translate(-301.25 -110.14)"/><path d="M405.08,130.22a2.08,2.08,0,1,1-2.08-2.08A2.08,2.08,0,0,1,405.08,130.22Z" transform="translate(-301.25 -110.14)"/><path d="M430,130.22a2.09,2.09,0,1,1-2.08-2.08A2.08,2.08,0,0,1,430,130.22Z" transform="translate(-301.25 -110.14)"/><path d="M454.92,130.22a2.09,2.09,0,1,1-2.09-2.08A2.09,2.09,0,0,1,454.92,130.22Z" transform="translate(-301.25 -110.14)"/><path d="M479.83,130.22a2.08,2.08,0,1,1-2.08-2.08A2.08,2.08,0,0,1,479.83,130.22Z" transform="translate(-301.25 -110.14)"/><path d="M504.75,130.22a2.09,2.09,0,1,1-2.08-2.08A2.08,2.08,0,0,1,504.75,130.22Z" transform="translate(-301.25 -110.14)"/><path d="M529.67,130.22a2.09,2.09,0,1,1-2.09-2.08A2.09,2.09,0,0,1,529.67,130.22Z" transform="translate(-301.25 -110.14)"/><path d="M554.58,130.22a2.08,2.08,0,1,1-2.08-2.08A2.08,2.08,0,0,1,554.58,130.22Z" transform="translate(-301.25 -110.14)"/><path d="M405.08,148.22a2.08,2.08,0,1,1-2.08-2.08A2.08,2.08,0,0,1,405.08,148.22Z" transform="translate(-301.25 -110.14)"/><path d="M430,148.22a2.09,2.09,0,1,1-2.08-2.08A2.08,2.08,0,0,1,430,148.22Z" transform="translate(-301.25 -110.14)"/><path d="M454.92,148.22a2.09,2.09,0,1,1-2.09-2.08A2.09,2.09,0,0,1,454.92,148.22Z" transform="translate(-301.25 -110.14)"/><path d="M479.83,148.22a2.08,2.08,0,1,1-2.08-2.08A2.08,2.08,0,0,1,479.83,148.22Z" transform="translate(-301.25 -110.14)"/><path d="M504.75,148.22a2.09,2.09,0,1,1-2.08-2.08A2.08,2.08,0,0,1,504.75,148.22Z" transform="translate(-301.25 -110.14)"/><path d="M529.67,148.22a2.09,2.09,0,1,1-2.09-2.08A2.09,2.09,0,0,1,529.67,148.22Z" transform="translate(-301.25 -110.14)"/><path d="M554.58,148.22a2.08,2.08,0,1,1-2.08-2.08A2.08,2.08,0,0,1,554.58,148.22Z" transform="translate(-301.25 -110.14)"/><path d="M405.08,166.22a2.08,2.08,0,1,1-2.08-2.08A2.08,2.08,0,0,1,405.08,166.22Z" transform="translate(-301.25 -110.14)"/><path d="M430,166.22a2.09,2.09,0,1,1-2.08-2.08A2.08,2.08,0,0,1,430,166.22Z" transform="translate(-301.25 -110.14)"/><path d="M454.92,166.22a2.09,2.09,0,1,1-2.09-2.08A2.09,2.09,0,0,1,454.92,166.22Z" transform="translate(-301.25 -110.14)"/><path d="M479.83,166.22a2.08,2.08,0,1,1-2.08-2.08A2.08,2.08,0,0,1,479.83,166.22Z" transform="translate(-301.25 -110.14)"/><path d="M504.75,166.22a2.09,2.09,0,1,1-2.08-2.08A2.08,2.08,0,0,1,504.75,166.22Z" transform="translate(-301.25 -110.14)"/><path d="M529.67,166.22a2.09,2.09,0,1,1-2.09-2.08A2.09,2.09,0,0,1,529.67,166.22Z" transform="translate(-301.25 -110.14)"/><path d="M554.58,166.22a2.08,2.08,0,1,1-2.08-2.08A2.08,2.08,0,0,1,554.58,166.22Z" transform="translate(-301.25 -110.14)"/><path d="M405.08,184.22a2.08,2.08,0,1,1-2.08-2.08A2.08,2.08,0,0,1,405.08,184.22Z" transform="translate(-301.25 -110.14)"/><path d="M430,184.22a2.09,2.09,0,1,1-2.08-2.08A2.08,2.08,0,0,1,430,184.22Z" transform="translate(-301.25 -110.14)"/><path d="M454.92,184.22a2.09,2.09,0,1,1-2.09-2.08A2.09,2.09,0,0,1,454.92,184.22Z" transform="translate(-301.25 -110.14)"/><path d="M479.83,184.22a2.08,2.08,0,1,1-2.08-2.08A2.08,2.08,0,0,1,479.83,184.22Z" transform="translate(-301.25 -110.14)"/><path d="M504.75,184.22a2.09,2.09,0,1,1-2.08-2.08A2.08,2.08,0,0,1,504.75,184.22Z" transform="translate(-301.25 -110.14)"/><path d="M529.67,184.22a2.09,2.09,0,1,1-2.09-2.08A2.09,2.09,0,0,1,529.67,184.22Z" transform="translate(-301.25 -110.14)"/><path d="M554.58,184.22a2.08,2.08,0,1,1-2.08-2.08A2.08,2.08,0,0,1,554.58,184.22Z" transform="translate(-301.25 -110.14)"/><path d="M405.08,202.22a2.08,2.08,0,1,1-2.08-2.08A2.08,2.08,0,0,1,405.08,202.22Z" transform="translate(-301.25 -110.14)"/><path d="M430,202.22a2.09,2.09,0,1,1-2.08-2.08A2.08,2.08,0,0,1,430,202.22Z" transform="translate(-301.25 -110.14)"/><path d="M454.92,202.22a2.09,2.09,0,1,1-2.09-2.08A2.09,2.09,0,0,1,454.92,202.22Z" transform="translate(-301.25 -110.14)"/><path d="M479.83,202.22a2.08,2.08,0,1,1-2.08-2.08A2.08,2.08,0,0,1,479.83,202.22Z" transform="translate(-301.25 -110.14)"/><path d="M504.75,202.22a2.09,2.09,0,1,1-2.08-2.08A2.08,2.08,0,0,1,504.75,202.22Z" transform="translate(-301.25 -110.14)"/><path d="M529.67,202.22a2.09,2.09,0,1,1-2.09-2.08A2.09,2.09,0,0,1,529.67,202.22Z" transform="translate(-301.25 -110.14)"/><path d="M554.58,202.22a2.08,2.08,0,1,1-2.08-2.08A2.08,2.08,0,0,1,554.58,202.22Z" transform="translate(-301.25 -110.14)"/><path d="M405.08,220.22a2.08,2.08,0,1,1-2.08-2.08A2.08,2.08,0,0,1,405.08,220.22Z" transform="translate(-301.25 -110.14)"/><path d="M430,220.22a2.09,2.09,0,1,1-2.08-2.08A2.08,2.08,0,0,1,430,220.22Z" transform="translate(-301.25 -110.14)"/><path d="M454.92,220.22a2.09,2.09,0,1,1-2.09-2.08A2.09,2.09,0,0,1,454.92,220.22Z" transform="translate(-301.25 -110.14)"/><path d="M479.83,220.22a2.08,2.08,0,1,1-2.08-2.08A2.08,2.08,0,0,1,479.83,220.22Z" transform="translate(-301.25 -110.14)"/><path d="M504.75,220.22a2.09,2.09,0,1,1-2.08-2.08A2.08,2.08,0,0,1,504.75,220.22Z" transform="translate(-301.25 -110.14)"/><path d="M529.67,220.22a2.09,2.09,0,1,1-2.09-2.08A2.09,2.09,0,0,1,529.67,220.22Z" transform="translate(-301.25 -110.14)"/><path d="M554.58,220.22a2.08,2.08,0,1,1-2.08-2.08A2.08,2.08,0,0,1,554.58,220.22Z" transform="translate(-301.25 -110.14)"/><path d="M405.08,238.22a2.08,2.08,0,1,1-2.08-2.08A2.08,2.08,0,0,1,405.08,238.22Z" transform="translate(-301.25 -110.14)"/><path d="M430,238.22a2.09,2.09,0,1,1-2.08-2.08A2.08,2.08,0,0,1,430,238.22Z" transform="translate(-301.25 -110.14)"/><path d="M454.92,238.22a2.09,2.09,0,1,1-2.09-2.08A2.09,2.09,0,0,1,454.92,238.22Z" transform="translate(-301.25 -110.14)"/><path d="M479.83,238.22a2.08,2.08,0,1,1-2.08-2.08A2.08,2.08,0,0,1,479.83,238.22Z" transform="translate(-301.25 -110.14)"/><path d="M504.75,238.22a2.09,2.09,0,1,1-2.08-2.08A2.08,2.08,0,0,1,504.75,238.22Z" transform="translate(-301.25 -110.14)"/><path d="M529.67,238.22a2.09,2.09,0,1,1-2.09-2.08A2.09,2.09,0,0,1,529.67,238.22Z" transform="translate(-301.25 -110.14)"/><path d="M554.58,238.22a2.08,2.08,0,1,1-2.08-2.08A2.08,2.08,0,0,1,554.58,238.22Z" transform="translate(-301.25 -110.14)"/><path d="M405.08,256.22a2.08,2.08,0,1,1-2.08-2.08A2.08,2.08,0,0,1,405.08,256.22Z" transform="translate(-301.25 -110.14)"/><path d="M430,256.22a2.09,2.09,0,1,1-2.08-2.08A2.08,2.08,0,0,1,430,256.22Z" transform="translate(-301.25 -110.14)"/><path d="M454.92,256.22a2.09,2.09,0,1,1-2.09-2.08A2.09,2.09,0,0,1,454.92,256.22Z" transform="translate(-301.25 -110.14)"/><path d="M479.83,256.22a2.08,2.08,0,1,1-2.08-2.08A2.08,2.08,0,0,1,479.83,256.22Z" transform="translate(-301.25 -110.14)"/><path d="M504.75,256.22a2.09,2.09,0,1,1-2.08-2.08A2.08,2.08,0,0,1,504.75,256.22Z" transform="translate(-301.25 -110.14)"/><path d="M529.67,256.22a2.09,2.09,0,1,1-2.09-2.08A2.09,2.09,0,0,1,529.67,256.22Z" transform="translate(-301.25 -110.14)"/><path d="M554.58,256.22a2.08,2.08,0,1,1-2.08-2.08A2.08,2.08,0,0,1,554.58,256.22Z" transform="translate(-301.25 -110.14)"/><path d="M405.08,274.22a2.08,2.08,0,1,1-2.08-2.08A2.08,2.08,0,0,1,405.08,274.22Z" transform="translate(-301.25 -110.14)"/><path d="M430,274.22a2.09,2.09,0,1,1-2.08-2.08A2.08,2.08,0,0,1,430,274.22Z" transform="translate(-301.25 -110.14)"/><path d="M454.92,274.22a2.09,2.09,0,1,1-2.09-2.08A2.09,2.09,0,0,1,454.92,274.22Z" transform="translate(-301.25 -110.14)"/><path d="M479.83,274.22a2.08,2.08,0,1,1-2.08-2.08A2.08,2.08,0,0,1,479.83,274.22Z" transform="translate(-301.25 -110.14)"/><path d="M504.75,274.22a2.09,2.09,0,1,1-2.08-2.08A2.08,2.08,0,0,1,504.75,274.22Z" transform="translate(-301.25 -110.14)"/><path d="M529.67,274.22a2.09,2.09,0,1,1-2.09-2.08A2.09,2.09,0,0,1,529.67,274.22Z" transform="translate(-301.25 -110.14)"/><path d="M554.58,274.22a2.08,2.08,0,1,1-2.08-2.08A2.08,2.08,0,0,1,554.58,274.22Z" transform="translate(-301.25 -110.14)"/><path d="M405.08,292.22a2.08,2.08,0,1,1-2.08-2.08A2.08,2.08,0,0,1,405.08,292.22Z" transform="translate(-301.25 -110.14)"/><path d="M430,292.22a2.09,2.09,0,1,1-2.08-2.08A2.08,2.08,0,0,1,430,292.22Z" transform="translate(-301.25 -110.14)"/><path d="M454.92,292.22a2.09,2.09,0,1,1-2.09-2.08A2.09,2.09,0,0,1,454.92,292.22Z" transform="translate(-301.25 -110.14)"/><path d="M479.83,292.22a2.08,2.08,0,1,1-2.08-2.08A2.08,2.08,0,0,1,479.83,292.22Z" transform="translate(-301.25 -110.14)"/><path d="M504.75,292.22a2.09,2.09,0,1,1-2.08-2.08A2.08,2.08,0,0,1,504.75,292.22Z" transform="translate(-301.25 -110.14)"/><path d="M529.67,292.22a2.09,2.09,0,1,1-2.09-2.08A2.09,2.09,0,0,1,529.67,292.22Z" transform="translate(-301.25 -110.14)"/><path d="M554.58,292.22a2.08,2.08,0,1,1-2.08-2.08A2.08,2.08,0,0,1,554.58,292.22Z" transform="translate(-301.25 -110.14)"/><path d="M405.08,310.22a2.08,2.08,0,1,1-2.08-2.08A2.08,2.08,0,0,1,405.08,310.22Z" transform="translate(-301.25 -110.14)"/><path d="M430,310.22a2.09,2.09,0,1,1-2.08-2.08A2.08,2.08,0,0,1,430,310.22Z" transform="translate(-301.25 -110.14)"/><path d="M454.92,310.22a2.09,2.09,0,1,1-2.09-2.08A2.09,2.09,0,0,1,454.92,310.22Z" transform="translate(-301.25 -110.14)"/><path d="M479.83,310.22a2.08,2.08,0,1,1-2.08-2.08A2.08,2.08,0,0,1,479.83,310.22Z" transform="translate(-301.25 -110.14)"/><path d="M504.75,310.22a2.09,2.09,0,1,1-2.08-2.08A2.08,2.08,0,0,1,504.75,310.22Z" transform="translate(-301.25 -110.14)"/><path d="M529.67,310.22a2.09,2.09,0,1,1-2.09-2.08A2.09,2.09,0,0,1,529.67,310.22Z" transform="translate(-301.25 -110.14)"/><path d="M554.58,310.22a2.08,2.08,0,1,1-2.08-2.08A2.08,2.08,0,0,1,554.58,310.22Z" transform="translate(-301.25 -110.14)"/><path d="M405.08,292.22a2.08,2.08,0,1,1-2.08-2.08A2.08,2.08,0,0,1,405.08,292.22Z" transform="translate(-301.25 -110.14)"/><path d="M430,292.22a2.09,2.09,0,1,1-2.08-2.08A2.08,2.08,0,0,1,430,292.22Z" transform="translate(-301.25 -110.14)"/><path d="M454.92,292.22a2.09,2.09,0,1,1-2.09-2.08A2.09,2.09,0,0,1,454.92,292.22Z" transform="translate(-301.25 -110.14)"/><path d="M479.83,292.22a2.08,2.08,0,1,1-2.08-2.08A2.08,2.08,0,0,1,479.83,292.22Z" transform="translate(-301.25 -110.14)"/><path d="M504.75,292.22a2.09,2.09,0,1,1-2.08-2.08A2.08,2.08,0,0,1,504.75,292.22Z" transform="translate(-301.25 -110.14)"/><path d="M529.67,292.22a2.09,2.09,0,1,1-2.09-2.08A2.09,2.09,0,0,1,529.67,292.22Z" transform="translate(-301.25 -110.14)"/><path d="M554.58,292.22a2.08,2.08,0,1,1-2.08-2.08A2.08,2.08,0,0,1,554.58,292.22Z" transform="translate(-301.25 -110.14)"/><path d="M405.08,310.22a2.08,2.08,0,1,1-2.08-2.08A2.08,2.08,0,0,1,405.08,310.22Z" transform="translate(-301.25 -110.14)"/><path d="M430,310.22a2.09,2.09,0,1,1-2.08-2.08A2.08,2.08,0,0,1,430,310.22Z" transform="translate(-301.25 -110.14)"/><path d="M454.92,310.22a2.09,2.09,0,1,1-2.09-2.08A2.09,2.09,0,0,1,454.92,310.22Z" transform="translate(-301.25 -110.14)"/><path d="M479.83,310.22a2.08,2.08,0,1,1-2.08-2.08A2.08,2.08,0,0,1,479.83,310.22Z" transform="translate(-301.25 -110.14)"/><path d="M504.75,310.22a2.09,2.09,0,1,1-2.08-2.08A2.08,2.08,0,0,1,504.75,310.22Z" transform="translate(-301.25 -110.14)"/><path d="M529.67,310.22a2.09,2.09,0,1,1-2.09-2.08A2.09,2.09,0,0,1,529.67,310.22Z" transform="translate(-301.25 -110.14)"/><path d="M554.58,310.22a2.08,2.08,0,1,1-2.08-2.08A2.08,2.08,0,0,1,554.58,310.22Z" transform="translate(-301.25 -110.14)"/><path d="M405.08,328.22a2.08,2.08,0,1,1-2.08-2.08A2.08,2.08,0,0,1,405.08,328.22Z" transform="translate(-301.25 -110.14)"/><path d="M430,328.22a2.09,2.09,0,1,1-2.08-2.08A2.08,2.08,0,0,1,430,328.22Z" transform="translate(-301.25 -110.14)"/><path d="M454.92,328.22a2.09,2.09,0,1,1-2.09-2.08A2.09,2.09,0,0,1,454.92,328.22Z" transform="translate(-301.25 -110.14)"/><path d="M479.83,328.22a2.08,2.08,0,1,1-2.08-2.08A2.08,2.08,0,0,1,479.83,328.22Z" transform="translate(-301.25 -110.14)"/><path d="M504.75,328.22a2.09,2.09,0,1,1-2.08-2.08A2.08,2.08,0,0,1,504.75,328.22Z" transform="translate(-301.25 -110.14)"/><path d="M529.67,328.22a2.09,2.09,0,1,1-2.09-2.08A2.09,2.09,0,0,1,529.67,328.22Z" transform="translate(-301.25 -110.14)"/><path d="M554.58,328.22a2.08,2.08,0,1,1-2.08-2.08A2.08,2.08,0,0,1,554.58,328.22Z" transform="translate(-301.25 -110.14)"/></svg>